<svg width="35" height="30" fill="none" xmlns="http://www.w3.org/2000/svg">
  <path fill-rule="evenodd" clip-rule="evenodd"
    d="m1.923 25.424 1.943 3.398c.353.617 1.097 1.03 1.853 1.03h23.562c.756 0 1.5-.413 1.853-1.03l1.943-3.398c1.176-.58 1.923-1.74 1.923-3.018 0-1.188-.66-2.292-1.709-2.903-.678-3.465-2.838-6.807-5.992-9.275l.771-2.573 1.591-1.576c.17-.169.403-.246.578-.193.73.225 1.519.031 2.059-.504.8-.791.8-2.08 0-2.872a2.046 2.046 0 0 0-1.337-.591 2.015 2.015 0 0 0-.596-1.324 2.064 2.064 0 0 0-2.901 0 2.014 2.014 0 0 0-.508 2.04c.054.173-.024.403-.195.572l-1.59 1.575-2.96.87c-2.362.728-2.842.754-3.686 1.216a16.498 16.498 0 0 0-1.025-.033c-7.674 0-14.405 5.446-15.792 12.669C.66 20.114 0 21.218 0 22.406c0 1.278.747 2.438 1.923 3.018zm28.021 2.731c-.112.196-.397.344-.663.344H5.719c-.266 0-.55-.148-.663-.344l-1.352-2.364h27.592l-1.352 2.364zm-2.216-23.99c.536-.532.74-1.271.533-1.932a.673.673 0 0 1 .17-.68.688.688 0 0 1 .967 0 .673.673 0 0 1 0 .957.673.673 0 0 0 0 .958c.267.264.7.264.967 0a.687.687 0 0 1 .966 0 .673.673 0 0 1 0 .957.689.689 0 0 1-.687.168c-.666-.205-1.413-.002-1.95.529l-1.23 1.218-.966-.958 1.23-1.218zM22.599 6.95l2.736-.805 1.358 1.346-1.58 5.274c-.875 2.917-4.626 3.899-6.833 1.712-1.967-1.948-1.381-5.05.762-6.343.72-.434 1.149-.445 3.557-1.184zM16.934 8.2c-1.719 2.124-1.653 5.222.38 7.234 2.944 2.918 7.941 1.61 9.109-2.283l.455-1.518c2.45 2.048 4.183 4.665 4.903 7.398a3.518 3.518 0 0 0-3.07 1.374 3.54 3.54 0 0 0-2.803-1.385 3.518 3.518 0 0 0-2.803 1.385 3.541 3.541 0 0 0-2.802-1.385 3.518 3.518 0 0 0-2.803 1.385 3.54 3.54 0 0 0-2.803-1.385 3.518 3.518 0 0 0-2.802 1.385 3.54 3.54 0 0 0-2.803-1.385 3.518 3.518 0 0 0-2.803 1.385 3.544 3.544 0 0 0-2.803-1.385c-.092 0-.183.005-.274.012C4.73 12.958 10.402 8.448 16.934 8.2zM3.486 20.374c1.15 0 2.12.93 2.12 2.03a.68.68 0 0 0 .683.678.68.68 0 0 0 .684-.677c0-1.101.97-2.031 2.119-2.031 1.149 0 2.119.93 2.119 2.03a.68.68 0 0 0 .684.678.68.68 0 0 0 .683-.677c0-1.101.97-2.031 2.12-2.031 1.148 0 2.118.93 2.118 2.03a.68.68 0 0 0 .684.678.68.68 0 0 0 .684-.677c0-1.101.97-2.031 2.119-2.031 1.148 0 2.119.93 2.119 2.03a.68.68 0 0 0 .683.678.68.68 0 0 0 .684-.677c0-1.101.97-2.031 2.12-2.031 1.148 0 2.118.93 2.118 2.03a.68.68 0 0 0 .684.678.68.68 0 0 0 .684-.677c0-1.101.97-2.031 2.119-2.031 1.123 0 2.119.906 2.119 2.03 0 1.154-1.017 2.032-2.12 2.032H3.487c-1.1 0-2.119-.877-2.119-2.031 0-1.124.995-2.031 2.12-2.031z"
    fill="currentColor" />
</svg>