<svg width="24" height="30" fill="none" xmlns="http://www.w3.org/2000/svg">
  <path fill-rule="evenodd" clip-rule="evenodd"
    d="M6.783 26.897a.52.52 0 0 0-.522.517.52.52 0 0 0 .522.517.52.52 0 0 0 .521-.517.52.52 0 0 0-.521-.517z"
    fill="currentColor" />
  <path fill-rule="evenodd" clip-rule="evenodd"
    d="M12.6 0h-1.2c-.993 0-1.8.788-1.8 1.758v.686a1.83 1.83 0 0 0-.6-.1H7.8c-.234 0-.458.044-.664.124A1.796 1.796 0 0 0 5.4 1.172H4.2c-.993 0-1.8.788-1.8 1.758v2.975C.434 6.218 0 8.015 0 9.96v1.523c0 .053.01.102.012.116v.004l3.6 17.923A.597.597 0 0 0 4.2 30h15.6a.597.597 0 0 0 .589-.473l3.598-17.923.001-.003c.004-.026.012-.067.012-.117V9.961c0-1.945-.434-3.743-2.4-4.056V2.93c0-.97-.807-1.758-1.8-1.758h-1.2c-.993 0-1.8.788-1.8 1.758v.686a1.83 1.83 0 0 0-.6-.1H15c-.21 0-.412.035-.6.1V1.758C14.4.788 13.593 0 12.6 0zm-1.8 1.758c0-.323.27-.586.6-.586h1.2c.33 0 .6.263.6.586v12.656h-2.4V1.758zm-3 1.758H9c.33 0 .6.262.6.586v10.114a3.409 3.409 0 0 1-2.124-2.115 1.745 1.745 0 0 0-.276-.509v-7.49c0-.324.27-.586.6-.586zM3.6 2.93c0-.323.27-.586.6-.586h1.2c.33 0 .6.263.6.586v7.983a1.855 1.855 0 0 0-.232-.015H3.6V2.93zM1.582 7.753c.137-.248.353-.522.818-.65v3.795H1.2v-.937c0-1.02.125-1.742.383-2.208zm18.195 18.731H9c-.331 0-.6.263-.6.586 0 .324.269.586.6.586h10.541l-.235 1.172H4.694L1.329 12.07h4.44c.26 0 .489.166.569.401.646 1.894 2.454 3.115 4.425 3.115h2.507c2.034 0 3.805-1.297 4.426-3.115a.6.6 0 0 1 .57-.4h4.405l-2.894 14.413zM22.8 9.961v.937h-1.2V7.103c.738.204 1.2.911 1.2 2.858zM18 2.93c0-.323.27-.586.6-.586h1.2c.33 0 .6.263.6.586v7.968h-2.135c-.09 0-.178.007-.265.02V2.93zm-3 1.757h1.2c.33 0 .6.263.6.586v6.363a1.717 1.717 0 0 0-.243.465 3.447 3.447 0 0 1-2.157 2.127V5.273c0-.323.27-.585.6-.585z"
    fill="currentColor" />
  <path fill-rule="evenodd" clip-rule="evenodd"
    d="M12 16.552c-2.014 0-3.652 1.624-3.652 3.62 0 1.997 1.638 3.621 3.652 3.621 2.014 0 3.652-1.624 3.652-3.62 0-1.997-1.638-3.621-3.652-3.621zm0 6.034c-1.342 0-2.435-1.083-2.435-2.414 0-1.33 1.093-2.413 2.435-2.413s2.435 1.083 2.435 2.413c0 1.331-1.093 2.414-2.435 2.414z"
    fill="currentColor" />
</svg>