<svg xmlns="http://www.w3.org/2000/svg" width="34" height="21" viewBox="0 0 34 21">
  <rect width="34" height="21" rx="1.5" style="fill:#007cff" />
  <path
    d="M17.56 11.26a4.47 4.47 0 0 1 2.5-1 4.62 4.62 0 0 1 3 .76 1.31 1.31 0 0 1 .56.58 1 1 0 0 1-.36 1.25 1.07 1.07 0 0 1-1.22 0 2.57 2.57 0 0 0-1.56-.52 2.61 2.61 0 0 0-2.07 1 2.91 2.91 0 0 0-.59 1.27 2.82 2.82 0 0 0 .41 2 2.71 2.71 0 0 0 1.49 1.13 2.68 2.68 0 0 0 1.85-.14 2.78 2.78 0 0 0 1.39-1.49h-1.55a1 1 0 0 1-.33-2 1.91 1.91 0 0 1 .63-.07h2.44a1.09 1.09 0 0 1 .47.09.93.93 0 0 1 .55.78 4.63 4.63 0 0 1-.38 2.11A5 5 0 0 1 23.24 19a4.68 4.68 0 0 1-5.78-.11 5.52 5.52 0 0 1-1.08-1.23 4.89 4.89 0 0 1-.69-3 5 5 0 0 1 1.87-3.39z"
    transform="translate(-5.5 -4.5)" style="fill:#fff" />
  <path
    d="M16.87 7.8a7.86 7.86 0 0 1 6.37-.23 8 8 0 0 1 2.86 2 1.88 1.88 0 0 1 .27.36.87.87 0 0 1-.13 1 .89.89 0 0 1-1.33 0A6.07 6.07 0 0 0 18 9.23a6.44 6.44 0 0 0-2.84 2.45 6 6 0 0 0-.91 3.56 6 6 0 0 0 1.11 3.36 6 6 0 0 0 5.79 2.55 6 6 0 0 0 3.54-1.83c.1-.11.19-.23.3-.33a.88.88 0 0 1 .93-.14.86.86 0 0 1 .48.49.87.87 0 0 1-.13.85 7.75 7.75 0 0 1-4.78 2.7 7.89 7.89 0 0 1-4.42-.61 8.24 8.24 0 0 1-3.27-2.84 7.65 7.65 0 0 1-1.31-4v-.84a7.8 7.8 0 0 1 1-3.53 8.38 8.38 0 0 1 3.38-3.27z"
    transform="translate(-5.5 -4.5)" style="fill:#1b2a7a" />
  <path
    d="M29.8 9.3a1 1 0 0 1 1.08.34A8.85 8.85 0 0 1 33 16.17a8.63 8.63 0 0 1-2 5 1 1 0 0 1-1.36.14 1.38 1.38 0 0 1-.5-1.27 1.61 1.61 0 0 1 .43-.85 6.23 6.23 0 0 0 .12-7.38c-.11-.15-.23-.3-.35-.44a1.4 1.4 0 0 1-.23-1.32 1.13 1.13 0 0 1 .69-.75z"
    transform="translate(-5.5 -4.5)" style="fill:#5bbce6" />
  <path
    d="M27.19 11.6a1 1 0 0 1 .88.13 2 2 0 0 1 .35.36A5.51 5.51 0 0 1 29.56 15a5.45 5.45 0 0 1-1.2 3.9 1 1 0 0 1-.55.36 1 1 0 0 1-1.08-.4 1.39 1.39 0 0 1-.07-1.58 6.3 6.3 0 0 0 .37-.53A2.66 2.66 0 0 0 26.9 14a3.45 3.45 0 0 1-.35-.5 1.4 1.4 0 0 1-.1-1 1.24 1.24 0 0 1 .74-.9z"
    transform="translate(-5.5 -4.5)" style="fill:#5bbce6" />
</svg>