<svg xmlns="http://www.w3.org/2000/svg" width="34" height="21" viewBox="0 0 34 21">
  <rect width="34" height="21" rx="1.5" style="fill:#00b041" />
  <path
    d="M26.93 15.38h-4.44a.92.92 0 0 1 0-.16v-.71c0-.19 0-.19.2-.19h5.16c.12 0 .16 0 .16.16v5.55a.37.37 0 0 1-.08.22 5.39 5.39 0 0 1-2 1.4 7.14 7.14 0 0 1-2.22.58 7.12 7.12 0 0 1-3.79-.53A6.71 6.71 0 0 1 16 16.8 6.94 6.94 0 0 1 19.67 9a7.43 7.43 0 0 1 2.71-.83 11.44 11.44 0 0 1 2.11 0 7.29 7.29 0 0 1 2 .43.22.22 0 0 1 .19.26v1l-.35-.18a5.29 5.29 0 0 0-1.87-.49c-.46 0-.94-.06-1.41-.06a6.22 6.22 0 0 0-3.77 1.33 5.89 5.89 0 0 0-2.16 3.13 6.33 6.33 0 0 0-.2 2 6.09 6.09 0 0 0 .6 2.44 5.63 5.63 0 0 0 4 3.1 7 7 0 0 0 2.24 0 5.68 5.68 0 0 0 2.47-.81 6.55 6.55 0 0 0 .59-.45.36.36 0 0 0 .09-.22v-4.14a.89.89 0 0 0 .02-.13z"
    transform="translate(-5.5 -4.5)" style="fill:#fff;fill-rule:evenodd" />
  <path
    d="M26.12 16.2v3.1a.27.27 0 0 1-.12.24 3.85 3.85 0 0 1-1.55.68 6.94 6.94 0 0 1-1.93.17 5 5 0 0 1-4.78-5.06 5 5 0 0 1 .44-2.33 5.37 5.37 0 0 1 3.07-2.75 6.12 6.12 0 0 1 2.58-.32 7.34 7.34 0 0 1 2.18.43 6.11 6.11 0 0 1 .58.27.18.18 0 0 1 .09.12v1.16l-.14-.09a3.92 3.92 0 0 0-2-.76 10.07 10.07 0 0 0-1.42-.06 4.42 4.42 0 0 0-3.89 2.31A3.43 3.43 0 0 0 18.8 15a4.36 4.36 0 0 0 .35 2 3.81 3.81 0 0 0 3 2.27A5.74 5.74 0 0 0 25 19a.17.17 0 0 0 .13-.19v-1.37c0-.14 0-.19-.18-.19h-2.31c-.13 0-.17 0-.17-.16v-.89z"
    transform="translate(-5.5 -4.5)" style="fill:#fff;fill-rule:evenodd" />
</svg>