<svg xmlns="http://www.w3.org/2000/svg" width="34" height="21" viewBox="0 0 34 21">
  <rect width="34" height="21" rx="1.5" style="fill:#00334d" />
  <path
    d="M23.63 8.43a4 4 0 0 1 2.7.65 8.6 8.6 0 0 1 2.9 3.34 20.35 20.35 0 0 1 1.69 4.48c0 .2.14.42 0 .62s-.26.15-.41.15a21.86 21.86 0 0 1-4.2-.19 10.35 10.35 0 0 1-3-.95A5.72 5.72 0 0 1 21.42 15a4.73 4.73 0 0 1-1.1-2.78 4.16 4.16 0 0 1 .81-2.42 3.78 3.78 0 0 1 2.5-1.37z"
    transform="translate(-5.5 -4.5)" style="fill:#92c83e" />
  <path
    d="M19.49 10.14a2.32 2.32 0 0 1 .46 0c.13.05 0 .21 0 .3a4.15 4.15 0 0 0-.24 3 6.05 6.05 0 0 0 2.19 3.15 8.6 8.6 0 0 0 2.76 1.33 16.64 16.64 0 0 0 3.57.59.34.34 0 0 1 .33.19c.33.9.6 1.83.84 2.76a.54.54 0 0 1 0 .45c-.1.14-.3.11-.45.12-1.14 0-2.28-.07-3.42-.16a18 18 0 0 1-4.6-.92 9.51 9.51 0 0 1-4.2-2.72 5.78 5.78 0 0 1-1.4-3.44 4.39 4.39 0 0 1 1.14-3.05 4.82 4.82 0 0 1 3.02-1.6z"
    transform="translate(-5.5 -4.5)" style="fill:#0083cb" />
</svg>