<svg xmlns="http://www.w3.org/2000/svg" width="34" height="21" viewBox="0 0 34 21">
  <rect width="34" height="21" rx="1.5" style="fill:#113984" />
  <path
    d="M21.54 11.43h4.26c2.29 0 3.16 1.16 3 2.87-.22 2.81-1.92 4.37-4.17 4.37h-1.12c-.31 0-.52.2-.6.76l-.49 3.22c0 .21-.14.34-.31.35h-2.68c-.25 0-.34-.19-.27-.61L20.79 12a.66.66 0 0 1 .75-.57z"
    transform="translate(-5.5 -4.5)" style="fill:#b2bfd7;fill-rule:evenodd" />
  <path
    d="M18.87 7.87h4.27a5.34 5.34 0 0 1 3.58.88 2.88 2.88 0 0 1 .9 2.42c-.26 3.26-2.21 5.09-4.83 5.09h-2.11c-.36 0-.59.24-.69.88l-.59 3.74c0 .24-.15.39-.34.41h-2.63c-.29 0-.39-.23-.32-.71l1.9-12a.75.75 0 0 1 .86-.71z"
    transform="translate(-5.5 -4.5)" style="fill:#f8f9fb;fill-rule:evenodd" />
  <path
    d="m20.05 16.77.74-4.77a.66.66 0 0 1 .75-.61h4.26a4.25 4.25 0 0 1 1.73.31c-.43 2.91-2.31 4.52-4.77 4.52h-2.1c-.28.04-.49.18-.61.55z"
    transform="translate(-5.5 -4.5)" style="fill:#dbe1ec;fill-rule:evenodd" />
</svg>