<svg width="15" height="18" viewBox="0 0 15 18" fill="none" xmlns="http://www.w3.org/2000/svg">
  <path
    d="M13.564 4.65a6.2 6.2 0 0 0 .046-.755A3.89 3.89 0 0 0 9.724 0H3.23a.837.837 0 0 0-.825.7L.012 14.953a.838.838 0 0 0 .825.978h2.375a.844.844 0 0 0 .832-.7l.01-.066-.33 1.972A.739.739 0 0 0 4.45 18H6.53c.36 0 .668-.26.727-.616l.59-3.517a1.257 1.257 0 0 1 1.24-1.05h.545A5.375 5.375 0 0 0 15 7.437c0-1.15-.567-2.167-1.436-2.787z"
    fill="#002987" />
  <path
    d="M13.6 4c-.361 3.177-2.873 5.638-5.917 5.638H5.917c-.399 0-.743.286-.851.69L4.01 17.097c-.074.473.264.904.709.904h2.025c.351 0 .65-.273.709-.646l.575-3.688c.1-.636.61-1.101 1.207-1.101h.532c2.89 0 5.233-2.527 5.233-5.643C15 5.716 14.447 4.65 13.6 4z"
    fill="#0085CC" />
  <path
    d="M5.897 10.308H7.76c3.21 0 5.858-2.463 6.24-5.644A3.433 3.433 0 0 0 11.97 4H7.11c-.554 0-1.027.41-1.119.968L5 11a.938.938 0 0 1 .897-.692z"
    fill="#00186A" />
</svg>