<svg width="18" height="18" fill="none" xmlns="http://www.w3.org/2000/svg">
  <path clip-rule="evenodd" d="M11.514 10.764l-1.222 1.528a12.89 12.89 0 01-4.584-4.584l1.528-1.222c.368-.295.492-.8.3-1.232L6.143 2.117a1.038 1.038 0 00-1.21-.583l-2.652.687c-.512.134-.843.63-.771 1.154A15.407 15.407 0 0014.625 16.49a1.044 1.044 0 001.153-.771l.688-2.651a1.038 1.038 0 00-.583-1.21l-3.137-1.393a1.04 1.04 0 00-1.232.299z" stroke="#BDBDBD" stroke-width="1.5" stroke-linecap="round" stroke-linejoin="round"/>
</svg>