<svg width="15" height="13" fill="currentColor" xmlns="http://www.w3.org/2000/svg">
  <path fill-rule="evenodd" clip-rule="evenodd"
    d="m7 11.173 3.378 1.727c.635.325 1.394-.197 1.27-.898l-.644-3.659 2.733-2.592c.519-.494.23-1.35-.486-1.452l-3.776-.534L7.785.436c-.294-.581-1.275-.581-1.569 0l-1.69 3.33L.75 4.3C.035 4.4-.255 5.258.265 5.752l2.733 2.591-.645 3.66c-.123.697.634 1.226 1.27.897L7 11.173zm2.624-.583L7.408 9.457a.895.895 0 0 0-.815 0L4.377 10.59l.423-2.4a.837.837 0 0 0-.251-.753L2.756 5.736l2.477-.35a.873.873 0 0 0 .659-.466L7 2.736 8.11 4.92a.87.87 0 0 0 .658.466l2.477.35-1.793 1.7a.838.838 0 0 0-.25.754l.422 2.4z"
    fill="currentColor" />
</svg>